<svg width="34" height="8" viewBox="0 0 34 8" fill="none" xmlns="http://www.w3.org/2000/svg">
<path d="M3.112 6.40629C2.57333 6.40629 2.104 6.29162 1.704 6.06229C1.304 5.82762 0.997333 5.49429 0.784 5.06229C0.570667 4.62495 0.464 4.11029 0.464 3.51829C0.464 2.93162 0.570667 2.42228 0.784 1.99028C0.997333 1.55295 1.304 1.21962 1.704 0.990285C2.104 0.755618 2.57333 0.638285 3.112 0.638285C3.464 0.638285 3.79733 0.694285 4.112 0.806285C4.42667 0.912951 4.70133 1.07028 4.936 1.27829C5.03733 1.35828 5.088 1.46495 5.088 1.59828C5.088 1.69428 5.06133 1.77695 5.008 1.84628C4.95467 1.91028 4.89067 1.94229 4.816 1.94229C4.72533 1.94229 4.63733 1.90762 4.552 1.83828C4.296 1.64628 4.06133 1.51295 3.848 1.43828C3.64 1.35828 3.40267 1.31828 3.136 1.31828C2.54933 1.31828 2.09867 1.50762 1.784 1.88628C1.46933 2.26495 1.312 2.80895 1.312 3.51829C1.312 4.23295 1.46933 4.77962 1.784 5.15829C2.09867 5.53695 2.54933 5.72629 3.136 5.72629C3.392 5.72629 3.624 5.68629 3.832 5.60629C4.04533 5.52629 4.28533 5.39295 4.552 5.20629C4.65867 5.13695 4.74667 5.10229 4.816 5.10229C4.89067 5.10229 4.95467 5.13695 5.008 5.20629C5.06133 5.27029 5.088 5.35029 5.088 5.44629C5.088 5.57962 5.03733 5.68629 4.936 5.76629C4.70133 5.97429 4.42667 6.13429 4.112 6.24629C3.79733 6.35295 3.464 6.40629 3.112 6.40629ZM7.59194 6.39829C7.20794 6.39829 6.86927 6.31562 6.57594 6.15029C6.28794 5.98495 6.06394 5.75029 5.90394 5.44629C5.74927 5.13695 5.67194 4.77962 5.67194 4.37429C5.67194 3.96362 5.74927 3.60629 5.90394 3.30228C6.06394 2.99295 6.28794 2.75562 6.57594 2.59029C6.86927 2.42495 7.20794 2.34229 7.59194 2.34229C7.97594 2.34229 8.31194 2.42495 8.59994 2.59029C8.89327 2.75562 9.11727 2.99295 9.27194 3.30228C9.43194 3.60629 9.51194 3.96362 9.51194 4.37429C9.51194 4.77962 9.43194 5.13695 9.27194 5.44629C9.11727 5.75029 8.89327 5.98495 8.59994 6.15029C8.31194 6.31562 7.97594 6.39829 7.59194 6.39829ZM7.59194 5.75829C7.94927 5.75829 8.22127 5.64095 8.40794 5.40629C8.59994 5.17162 8.69594 4.82762 8.69594 4.37429C8.69594 3.92629 8.59994 3.58495 8.40794 3.35029C8.21594 3.11028 7.94394 2.99028 7.59194 2.99028C7.23994 2.99028 6.96794 3.11028 6.77594 3.35029C6.58394 3.58495 6.48794 3.92629 6.48794 4.37429C6.48794 4.82762 6.58127 5.17162 6.76794 5.40629C6.95994 5.64095 7.2346 5.75829 7.59194 5.75829ZM12.5076 2.34229C12.8489 2.34229 13.1502 2.42495 13.4116 2.59029C13.6729 2.75562 13.8756 2.99028 14.0196 3.29429C14.1689 3.59829 14.2436 3.95295 14.2436 4.35829C14.2436 4.75829 14.1689 5.11295 14.0196 5.42229C13.8756 5.73162 13.6702 5.97162 13.4036 6.14229C13.1422 6.31295 12.8436 6.39829 12.5076 6.39829C12.2142 6.39829 11.9556 6.33695 11.7316 6.21429C11.5076 6.08629 11.3369 5.90495 11.2196 5.67029V5.99029C11.2196 6.10762 11.1822 6.20362 11.1076 6.27829C11.0382 6.34762 10.9422 6.38229 10.8196 6.38229C10.6969 6.38229 10.5982 6.34762 10.5236 6.27829C10.4489 6.20362 10.4116 6.10762 10.4116 5.99029V1.04628C10.4116 0.928952 10.4489 0.835618 10.5236 0.766285C10.6036 0.696952 10.7049 0.662285 10.8276 0.662285C10.9449 0.662285 11.0382 0.696952 11.1076 0.766285C11.1822 0.830285 11.2196 0.918285 11.2196 1.03028V3.07828C11.3369 2.84362 11.5076 2.66229 11.7316 2.53429C11.9556 2.40629 12.2142 2.34229 12.5076 2.34229ZM12.3156 5.75829C12.6622 5.75829 12.9316 5.63562 13.1236 5.39029C13.3209 5.14495 13.4196 4.80095 13.4196 4.35829C13.4196 3.92095 13.3236 3.58495 13.1316 3.35029C12.9396 3.11028 12.6676 2.99028 12.3156 2.99028C11.9636 2.99028 11.6916 3.11028 11.4996 3.35029C11.3129 3.59028 11.2196 3.93162 11.2196 4.37429C11.2196 4.81695 11.3129 5.15829 11.4996 5.39829C11.6916 5.63829 11.9636 5.75829 12.3156 5.75829ZM17.1861 2.35828C17.4421 2.34228 17.5701 2.45162 17.5701 2.68629C17.5701 2.80362 17.5408 2.89162 17.4821 2.95028C17.4235 3.00895 17.3221 3.04362 17.1781 3.05429L16.9381 3.07828C16.6021 3.11029 16.3515 3.22762 16.1861 3.43028C16.0261 3.63295 15.9461 3.87829 15.9461 4.16629V5.99829C15.9461 6.12629 15.9088 6.22229 15.8341 6.28629C15.7595 6.35029 15.6635 6.38229 15.5461 6.38229C15.4288 6.38229 15.3301 6.35029 15.2501 6.28629C15.1755 6.22229 15.1381 6.12629 15.1381 5.99829V2.74229C15.1381 2.61962 15.1755 2.52629 15.2501 2.46229C15.3301 2.39295 15.4288 2.35828 15.5461 2.35828C15.6528 2.35828 15.7408 2.39295 15.8101 2.46229C15.8848 2.52629 15.9221 2.61695 15.9221 2.73428V3.11828C16.0288 2.88362 16.1835 2.70495 16.3861 2.58228C16.5888 2.45962 16.8181 2.38762 17.0741 2.36629L17.1861 2.35828ZM19.6844 2.34229C20.2017 2.34229 20.5857 2.47295 20.8364 2.73428C21.0924 2.99562 21.2204 3.39295 21.2204 3.92629V5.99829C21.2204 6.12095 21.1857 6.21695 21.1164 6.28629C21.047 6.35029 20.951 6.38229 20.8284 6.38229C20.711 6.38229 20.6177 6.34762 20.5484 6.27829C20.479 6.20895 20.4444 6.11562 20.4444 5.99829V5.70229C20.343 5.92629 20.191 6.09962 19.9884 6.22229C19.791 6.33962 19.559 6.39829 19.2924 6.39829C19.0364 6.39829 18.8017 6.34762 18.5884 6.24629C18.3804 6.13962 18.215 5.99562 18.0924 5.81429C17.9697 5.63295 17.9084 5.42762 17.9084 5.19829C17.903 4.91029 17.975 4.68629 18.1244 4.52629C18.2737 4.36095 18.5164 4.24362 18.8524 4.17428C19.1884 4.09962 19.655 4.06228 20.2524 4.06228H20.4364V3.83029C20.4364 3.53162 20.375 3.31562 20.2524 3.18229C20.1297 3.04895 19.9324 2.98229 19.6604 2.98229C19.4737 2.98229 19.2977 3.00629 19.1324 3.05429C18.967 3.10229 18.7857 3.17162 18.5884 3.26228C18.4444 3.34229 18.343 3.38229 18.2844 3.38229C18.2044 3.38229 18.1377 3.35295 18.0844 3.29429C18.0364 3.23562 18.0124 3.16095 18.0124 3.07029C18.0124 2.99028 18.0337 2.92095 18.0764 2.86228C18.1244 2.79828 18.199 2.73695 18.3004 2.67828C18.487 2.57695 18.7057 2.49695 18.9564 2.43828C19.207 2.37429 19.4497 2.34229 19.6844 2.34229ZM19.4364 5.79829C19.7297 5.79829 19.9697 5.69962 20.1564 5.50229C20.343 5.29962 20.4364 5.04095 20.4364 4.72629V4.51829H20.2924C19.8764 4.51829 19.5564 4.53695 19.3324 4.57429C19.1084 4.61162 18.9484 4.67562 18.8524 4.76629C18.7564 4.85162 18.7084 4.97695 18.7084 5.14229C18.7084 5.33429 18.7777 5.49162 18.9164 5.61429C19.055 5.73695 19.2284 5.79829 19.4364 5.79829ZM24.4296 2.34229C25.363 2.34229 25.8296 2.86762 25.8296 3.91829V5.99829C25.8296 6.12095 25.7923 6.21695 25.7176 6.28629C25.6483 6.35029 25.5496 6.38229 25.4216 6.38229C25.299 6.38229 25.2003 6.34762 25.1256 6.27829C25.0563 6.20895 25.0216 6.11562 25.0216 5.99829V3.95829C25.0216 3.62762 24.955 3.38495 24.8216 3.23028C24.6936 3.07562 24.491 2.99829 24.2136 2.99829C23.8883 2.99829 23.627 3.09962 23.4296 3.30228C23.2323 3.50495 23.1336 3.77695 23.1336 4.11828V5.99829C23.1336 6.11562 23.0963 6.20895 23.0216 6.27829C22.9523 6.34762 22.8563 6.38229 22.7336 6.38229C22.611 6.38229 22.5123 6.34762 22.4376 6.27829C22.363 6.20895 22.3256 6.11562 22.3256 5.99829V2.74229C22.3256 2.63029 22.363 2.53962 22.4376 2.47028C22.5176 2.39562 22.6163 2.35828 22.7336 2.35828C22.851 2.35828 22.9443 2.39295 23.0136 2.46229C23.083 2.53162 23.1176 2.62228 23.1176 2.73428V3.06228C23.2456 2.82762 23.4243 2.64895 23.6536 2.52628C23.883 2.40362 24.1416 2.34229 24.4296 2.34229ZM29.823 5.35029C29.8977 5.35029 29.959 5.38229 30.007 5.44629C30.055 5.50495 30.079 5.57962 30.079 5.67029C30.079 5.74495 30.0577 5.81429 30.015 5.87829C29.9777 5.93695 29.911 5.99829 29.815 6.06229C29.6763 6.15295 29.5163 6.22762 29.335 6.28629C29.1537 6.34495 28.9697 6.37962 28.783 6.39029L28.743 6.69429C28.8177 6.67829 28.8843 6.67029 28.943 6.67029C29.1083 6.67029 29.247 6.71829 29.359 6.81429C29.4763 6.91029 29.535 7.04629 29.535 7.22229C29.535 7.41962 29.4497 7.57962 29.279 7.70229C29.1083 7.83029 28.8657 7.89429 28.551 7.89429C28.343 7.89429 28.159 7.86495 27.999 7.80629C27.903 7.76895 27.855 7.70229 27.855 7.60629C27.855 7.54229 27.8763 7.48895 27.919 7.44629C27.967 7.40362 28.0283 7.39295 28.103 7.41429C28.263 7.45695 28.4123 7.47829 28.551 7.47829C28.6897 7.47829 28.7963 7.45695 28.871 7.41429C28.9457 7.37162 28.983 7.30762 28.983 7.22229C28.983 7.15829 28.9617 7.10762 28.919 7.07029C28.8817 7.03829 28.8257 7.02229 28.751 7.02229C28.6977 7.02229 28.6257 7.03295 28.535 7.05429C28.4443 7.07562 28.3883 7.08629 28.367 7.08629C28.3243 7.08629 28.2843 7.07029 28.247 7.03829C28.215 7.01162 28.2017 6.97429 28.207 6.92629L28.271 6.37429C27.791 6.29962 27.4097 6.08629 27.127 5.73429C26.8497 5.38229 26.711 4.93429 26.711 4.39029C26.711 3.98495 26.791 3.62762 26.951 3.31828C27.1163 3.00895 27.3457 2.76895 27.639 2.59828C27.9323 2.42762 28.2683 2.34229 28.647 2.34229C28.8497 2.34229 29.0523 2.37162 29.255 2.43028C29.463 2.48895 29.647 2.56895 29.807 2.67028C29.9777 2.78762 30.063 2.92362 30.063 3.07828C30.063 3.16895 30.039 3.24628 29.991 3.31029C29.943 3.36895 29.8817 3.39828 29.807 3.39828C29.759 3.39828 29.711 3.38762 29.663 3.36629C29.615 3.33962 29.5537 3.30229 29.479 3.25429C29.3457 3.16895 29.2203 3.10495 29.103 3.06228C28.991 3.01428 28.855 2.99028 28.695 2.99028C28.3323 2.99028 28.0497 3.11295 27.847 3.35828C27.6497 3.60362 27.551 3.94495 27.551 4.38229C27.551 4.81962 27.6497 5.15829 27.847 5.39829C28.0443 5.63295 28.3243 5.75029 28.687 5.75029C28.847 5.75029 28.9883 5.72629 29.111 5.67829C29.2337 5.63029 29.359 5.56629 29.487 5.48629C29.5457 5.44895 29.6043 5.41695 29.663 5.39029C29.7217 5.36362 29.775 5.35029 29.823 5.35029ZM32.4422 2.34229C32.9595 2.34229 33.3435 2.47295 33.5942 2.73428C33.8502 2.99562 33.9782 3.39295 33.9782 3.92629V5.99829C33.9782 6.12095 33.9435 6.21695 33.8742 6.28629C33.8049 6.35029 33.7089 6.38229 33.5862 6.38229C33.4689 6.38229 33.3755 6.34762 33.3062 6.27829C33.2369 6.20895 33.2022 6.11562 33.2022 5.99829V5.70229C33.1009 5.92629 32.9489 6.09962 32.7462 6.22229C32.5489 6.33962 32.3169 6.39829 32.0502 6.39829C31.7942 6.39829 31.5595 6.34762 31.3462 6.24629C31.1382 6.13962 30.9729 5.99562 30.8502 5.81429C30.7275 5.63295 30.6662 5.42762 30.6662 5.19829C30.6609 4.91029 30.7329 4.68629 30.8822 4.52629C31.0315 4.36095 31.2742 4.24362 31.6102 4.17428C31.9462 4.09962 32.4129 4.06228 33.0102 4.06228H33.1942V3.83029C33.1942 3.53162 33.1329 3.31562 33.0102 3.18229C32.8875 3.04895 32.6902 2.98229 32.4182 2.98229C32.2315 2.98229 32.0555 3.00629 31.8902 3.05429C31.7249 3.10229 31.5435 3.17162 31.3462 3.26228C31.2022 3.34229 31.1009 3.38229 31.0422 3.38229C30.9622 3.38229 30.8955 3.35295 30.8422 3.29429C30.7942 3.23562 30.7702 3.16095 30.7702 3.07029C30.7702 2.99028 30.7915 2.92095 30.8342 2.86228C30.8822 2.79828 30.9569 2.73695 31.0582 2.67828C31.2449 2.57695 31.4635 2.49695 31.7142 2.43828C31.9649 2.37429 32.2075 2.34229 32.4422 2.34229ZM32.1942 5.79829C32.4875 5.79829 32.7275 5.69962 32.9142 5.50229C33.1009 5.29962 33.1942 5.04095 33.1942 4.72629V4.51829H33.0502C32.6342 4.51829 32.3142 4.53695 32.0902 4.57429C31.8662 4.61162 31.7062 4.67562 31.6102 4.76629C31.5142 4.85162 31.4662 4.97695 31.4662 5.14229C31.4662 5.33429 31.5355 5.49162 31.6742 5.61429C31.8129 5.73695 31.9862 5.79829 32.1942 5.79829Z" fill="#DA0175"/>
</svg>
