<svg width="99" height="20" viewBox="0 0 99 20" fill="none" xmlns="http://www.w3.org/2000/svg">
<path d="M0 8.93994C0 4.52166 3.58172 0.939941 8 0.939941H91C95.4183 0.939941 99 4.52166 99 8.93994V11.9399C99 16.3582 95.4183 19.9399 91 19.9399H8C3.58172 19.9399 0 16.3582 0 11.9399V8.93994Z" fill="#EEF6F6"/>
<path d="M29.362 14.9399C29.138 14.9399 28.9607 14.8793 28.83 14.7579C28.7087 14.6273 28.648 14.4546 28.648 14.2399V5.76994C28.648 5.55527 28.7087 5.38727 28.83 5.26594C28.9607 5.13527 29.138 5.06994 29.362 5.06994H34.514C34.7287 5.06994 34.892 5.12127 35.004 5.22394C35.1253 5.32661 35.186 5.47127 35.186 5.65794C35.186 5.84461 35.1253 5.98927 35.004 6.09194C34.892 6.18527 34.7287 6.23194 34.514 6.23194H30.062V9.33994H34.234C34.4487 9.33994 34.612 9.39127 34.724 9.49394C34.8453 9.59661 34.906 9.74127 34.906 9.92794C34.906 10.1146 34.8453 10.2593 34.724 10.3619C34.612 10.4646 34.4487 10.5159 34.234 10.5159H30.062V13.7779H34.514C34.962 13.7779 35.186 13.9693 35.186 14.3519C35.186 14.5386 35.1253 14.6833 35.004 14.7859C34.892 14.8886 34.7287 14.9399 34.514 14.9399H29.362ZM44.5095 7.93994C46.0401 7.93994 46.8055 8.85927 46.8055 10.6979V14.3379C46.8055 14.5526 46.7401 14.7206 46.6095 14.8419C46.4788 14.9539 46.3061 15.0099 46.0915 15.0099C45.8861 15.0099 45.7181 14.9539 45.5875 14.8419C45.4568 14.7206 45.3915 14.5526 45.3915 14.3379V10.7119C45.3915 10.1426 45.2888 9.73194 45.0835 9.47994C44.8781 9.21861 44.5561 9.08794 44.1175 9.08794C43.6041 9.08794 43.1981 9.26527 42.8995 9.61994C42.6008 9.96527 42.4515 10.4413 42.4515 11.0479V14.3379C42.4515 14.5526 42.3861 14.7206 42.2555 14.8419C42.1248 14.9539 41.9521 15.0099 41.7375 15.0099C41.5321 15.0099 41.3641 14.9539 41.2335 14.8419C41.1028 14.7206 41.0375 14.5526 41.0375 14.3379V10.7119C41.0375 10.1426 40.9348 9.73194 40.7295 9.47994C40.5241 9.21861 40.2021 9.08794 39.7635 9.08794C39.2501 9.08794 38.8395 9.26527 38.5315 9.61994C38.2328 9.96527 38.0835 10.4413 38.0835 11.0479V14.3379C38.0835 14.5526 38.0181 14.7206 37.8875 14.8419C37.7568 14.9539 37.5888 15.0099 37.3835 15.0099C37.1781 15.0099 37.0055 14.9539 36.8655 14.8419C36.7348 14.7206 36.6695 14.5526 36.6695 14.3379V8.63994C36.6695 8.43461 36.7395 8.27127 36.8795 8.14994C37.0195 8.02861 37.1875 7.96794 37.3835 7.96794C37.5795 7.96794 37.7381 8.02861 37.8595 8.14994C37.9901 8.26194 38.0555 8.42061 38.0555 8.62594V9.14394C38.2608 8.75194 38.5455 8.45327 38.9095 8.24794C39.2735 8.04261 39.6935 7.93994 40.1695 7.93994C40.6921 7.93994 41.1215 8.04727 41.4575 8.26194C41.8028 8.47661 42.0595 8.80794 42.2275 9.25594C42.4328 8.85461 42.7361 8.53727 43.1375 8.30394C43.5388 8.06127 43.9961 7.93994 44.5095 7.93994ZM58.0191 4.99994C58.2338 4.99994 58.4065 5.06061 58.5371 5.18194C58.6678 5.30327 58.7331 5.46661 58.7331 5.67194V14.3239C58.7331 14.5386 58.6678 14.7066 58.5371 14.8279C58.4158 14.9493 58.2478 15.0099 58.0331 15.0099C57.8185 15.0099 57.6458 14.9493 57.5151 14.8279C57.3938 14.7066 57.3331 14.5386 57.3331 14.3239V13.7639C57.1278 14.1746 56.8291 14.4919 56.4371 14.7159C56.0451 14.9306 55.5925 15.0379 55.0791 15.0379C54.4911 15.0379 53.9638 14.8886 53.4971 14.5899C53.0398 14.2913 52.6805 13.8713 52.4191 13.3299C52.1671 12.7886 52.0411 12.1679 52.0411 11.4679C52.0411 10.7586 52.1671 10.1379 52.4191 9.60594C52.6805 9.07394 53.0398 8.66327 53.4971 8.37394C53.9545 8.08461 54.4818 7.93994 55.0791 7.93994C55.5925 7.93994 56.0405 8.05194 56.4231 8.27594C56.8151 8.49061 57.1138 8.79861 57.3191 9.19994V5.64394C57.3191 5.44794 57.3798 5.29394 57.5011 5.18194C57.6318 5.06061 57.8045 4.99994 58.0191 4.99994ZM55.4151 13.9179C56.0218 13.9179 56.4931 13.7079 56.8291 13.2879C57.1651 12.8679 57.3331 12.2706 57.3331 11.4959C57.3331 10.7213 57.1651 10.1239 56.8291 9.70394C56.5025 9.28394 56.0311 9.07394 55.4151 9.07394C54.7991 9.07394 54.3185 9.28394 53.9731 9.70394C53.6371 10.1146 53.4691 10.7026 53.4691 11.4679C53.4691 12.2333 53.6418 12.8353 53.9871 13.2739C54.3325 13.7033 54.8085 13.9179 55.4151 13.9179ZM61.4186 15.0099C61.2133 15.0099 61.0406 14.9539 60.9006 14.8419C60.7699 14.7299 60.7046 14.5619 60.7046 14.3379V8.65394C60.7046 8.42994 60.7699 8.26194 60.9006 8.14994C61.0406 8.02861 61.2133 7.96794 61.4186 7.96794C61.6239 7.96794 61.7919 8.02861 61.9226 8.14994C62.0533 8.26194 62.1186 8.42994 62.1186 8.65394V14.3379C62.1186 14.5619 62.0533 14.7299 61.9226 14.8419C61.7919 14.9539 61.6239 15.0099 61.4186 15.0099ZM61.4186 6.59594C61.1479 6.59594 60.9333 6.52127 60.7746 6.37194C60.6159 6.22261 60.5366 6.02661 60.5366 5.78394C60.5366 5.54127 60.6159 5.34994 60.7746 5.20994C60.9333 5.06061 61.1479 4.98594 61.4186 4.98594C61.6799 4.98594 61.8899 5.06061 62.0486 5.20994C62.2166 5.34994 62.3006 5.54127 62.3006 5.78394C62.3006 6.02661 62.2213 6.22261 62.0626 6.37194C61.9039 6.52127 61.6893 6.59594 61.4186 6.59594ZM66.9652 7.93994C67.8706 7.93994 68.5426 8.16861 68.9812 8.62594C69.4292 9.08327 69.6532 9.77861 69.6532 10.7119V14.3379C69.6532 14.5526 69.5926 14.7206 69.4712 14.8419C69.3499 14.9539 69.1819 15.0099 68.9672 15.0099C68.7619 15.0099 68.5986 14.9493 68.4772 14.8279C68.3559 14.7066 68.2952 14.5433 68.2952 14.3379V13.8199C68.1179 14.2119 67.8519 14.5153 67.4972 14.7299C67.1519 14.9353 66.7459 15.0379 66.2792 15.0379C65.8312 15.0379 65.4206 14.9493 65.0472 14.7719C64.6832 14.5853 64.3939 14.3333 64.1792 14.0159C63.9646 13.6986 63.8572 13.3393 63.8572 12.9379C63.8479 12.4339 63.9739 12.0419 64.2352 11.7619C64.4966 11.4726 64.9212 11.2673 65.5092 11.1459C66.0972 11.0153 66.9139 10.9499 67.9592 10.9499H68.2812V10.5439C68.2812 10.0213 68.1739 9.64327 67.9592 9.40994C67.7446 9.17661 67.3992 9.05994 66.9232 9.05994C66.5966 9.05994 66.2886 9.10194 65.9992 9.18594C65.7099 9.26994 65.3926 9.39127 65.0472 9.54994C64.7952 9.68994 64.6179 9.75994 64.5152 9.75994C64.3752 9.75994 64.2586 9.70861 64.1652 9.60594C64.0812 9.50327 64.0392 9.37261 64.0392 9.21394C64.0392 9.07394 64.0766 8.95261 64.1512 8.84994C64.2352 8.73794 64.3659 8.63061 64.5432 8.52794C64.8699 8.35061 65.2526 8.21061 65.6912 8.10794C66.1299 7.99594 66.5546 7.93994 66.9652 7.93994ZM66.5312 13.9879C67.0446 13.9879 67.4646 13.8153 67.7912 13.4699C68.1179 13.1153 68.2812 12.6626 68.2812 12.1119V11.7479H68.0292C67.3012 11.7479 66.7412 11.7806 66.3492 11.8459C65.9572 11.9113 65.6772 12.0233 65.5092 12.1819C65.3412 12.3313 65.2572 12.5506 65.2572 12.8399C65.2572 13.1759 65.3786 13.4513 65.6212 13.6659C65.8639 13.8806 66.1672 13.9879 66.5312 13.9879Z" fill="#1FA7AF"/>
</svg>
