<svg width="20" height="22" viewBox="0 0 20 22" fill="none" xmlns="http://www.w3.org/2000/svg">
<path fill-rule="evenodd" clip-rule="evenodd" d="M1.32216 1.16395C1.84286 0.587521 2.68708 0.587521 3.20778 1.16395L10.265 8.9765L17.3222 1.16395C17.8429 0.587521 18.6871 0.587521 19.2078 1.16395C19.7285 1.74038 19.7285 2.67496 19.2078 3.25139L12.1506 11.0639L19.2078 18.8765C19.7285 19.4529 19.7285 20.3875 19.2078 20.9639C18.6871 21.5404 17.8429 21.5404 17.3222 20.9639L10.265 13.1514L3.20778 20.9639C2.68708 21.5404 1.84286 21.5404 1.32216 20.9639C0.801466 20.3875 0.801466 19.4529 1.32216 18.8765L8.37936 11.0639L1.32216 3.25139C0.801466 2.67496 0.801466 1.74038 1.32216 1.16395Z" fill="#3F3F55"/>
</svg>
