<svg width="100" height="20" viewBox="0 0 100 20" fill="none" xmlns="http://www.w3.org/2000/svg">
<path d="M0.5 8.54883C0.5 4.13055 4.08172 0.548828 8.5 0.548828H91.5C95.9183 0.548828 99.5 4.13055 99.5 8.54883V11.5488C99.5 15.9671 95.9183 19.5488 91.5 19.5488H8.5C4.08172 19.5488 0.5 15.9671 0.5 11.5488V8.54883Z" fill="#FFEFEF"/>
<path d="M10.362 14.6188C10.1473 14.6188 9.97467 14.5535 9.844 14.4228C9.71333 14.2922 9.648 14.1148 9.648 13.8908V5.33683C9.648 5.12216 9.71333 4.94949 9.844 4.81883C9.97467 4.67883 10.1473 4.60883 10.362 4.60883C10.586 4.60883 10.7633 4.67416 10.894 4.80483C11.0247 4.93549 11.09 5.11283 11.09 5.33683V13.8908C11.09 14.1148 11.0247 14.2922 10.894 14.4228C10.7727 14.5535 10.5953 14.6188 10.362 14.6188ZM16.8944 7.54883C18.5278 7.54883 19.3444 8.46816 19.3444 10.3068V13.9468C19.3444 14.1615 19.2791 14.3295 19.1484 14.4508C19.0271 14.5628 18.8544 14.6188 18.6304 14.6188C18.4158 14.6188 18.2431 14.5582 18.1124 14.4368C17.9911 14.3155 17.9304 14.1522 17.9304 13.9468V10.3768C17.9304 9.79816 17.8138 9.37349 17.5804 9.10283C17.3564 8.83216 17.0018 8.69683 16.5164 8.69683C15.9471 8.69683 15.4898 8.87416 15.1444 9.22883C14.7991 9.58349 14.6264 10.0595 14.6264 10.6568V13.9468C14.6264 14.1522 14.5611 14.3155 14.4304 14.4368C14.3091 14.5582 14.1411 14.6188 13.9264 14.6188C13.7118 14.6188 13.5391 14.5582 13.4084 14.4368C13.2778 14.3155 13.2124 14.1522 13.2124 13.9468V8.24883C13.2124 8.05283 13.2778 7.89416 13.4084 7.77283C13.5484 7.64216 13.7211 7.57683 13.9264 7.57683C14.1318 7.57683 14.2951 7.63749 14.4164 7.75883C14.5378 7.88016 14.5984 8.03883 14.5984 8.23483V8.80883C14.8224 8.39816 15.1351 8.08549 15.5364 7.87083C15.9378 7.65616 16.3904 7.54883 16.8944 7.54883ZM24.1488 7.54883C25.0542 7.54883 25.7262 7.77749 26.1648 8.23483C26.6128 8.69216 26.8368 9.38749 26.8368 10.3208V13.9468C26.8368 14.1615 26.7762 14.3295 26.6548 14.4508C26.5335 14.5628 26.3655 14.6188 26.1508 14.6188C25.9455 14.6188 25.7822 14.5582 25.6608 14.4368C25.5395 14.3155 25.4788 14.1522 25.4788 13.9468V13.4288C25.3015 13.8208 25.0355 14.1242 24.6808 14.3388C24.3355 14.5442 23.9295 14.6468 23.4628 14.6468C23.0148 14.6468 22.6042 14.5582 22.2308 14.3808C21.8668 14.1942 21.5775 13.9422 21.3628 13.6248C21.1482 13.3075 21.0408 12.9482 21.0408 12.5468C21.0315 12.0428 21.1575 11.6508 21.4188 11.3708C21.6802 11.0815 22.1048 10.8762 22.6928 10.7548C23.2808 10.6242 24.0975 10.5588 25.1428 10.5588H25.4648V10.1528C25.4648 9.63016 25.3575 9.25216 25.1428 9.01883C24.9282 8.78549 24.5828 8.66883 24.1068 8.66883C23.7802 8.66883 23.4722 8.71083 23.1828 8.79483C22.8935 8.87883 22.5762 9.00016 22.2308 9.15883C21.9788 9.29883 21.8015 9.36883 21.6988 9.36883C21.5588 9.36883 21.4422 9.31749 21.3488 9.21483C21.2648 9.11216 21.2228 8.98149 21.2228 8.82283C21.2228 8.68283 21.2602 8.56149 21.3348 8.45883C21.4188 8.34683 21.5495 8.23949 21.7268 8.13683C22.0535 7.95949 22.4362 7.81949 22.8748 7.71683C23.3135 7.60483 23.7382 7.54883 24.1488 7.54883ZM23.7148 13.5968C24.2282 13.5968 24.6482 13.4242 24.9748 13.0788C25.3015 12.7242 25.4648 12.2715 25.4648 11.7208V11.3568H25.2128C24.4848 11.3568 23.9248 11.3895 23.5328 11.4548C23.1408 11.5202 22.8608 11.6322 22.6928 11.7908C22.5248 11.9402 22.4408 12.1595 22.4408 12.4488C22.4408 12.7848 22.5622 13.0602 22.8048 13.2748C23.0475 13.4895 23.3508 13.5968 23.7148 13.5968ZM34.357 4.60883C34.5717 4.60883 34.7443 4.66949 34.875 4.79083C35.0057 4.91216 35.071 5.07549 35.071 5.28083V13.9328C35.071 14.1475 35.0057 14.3155 34.875 14.4368C34.7537 14.5582 34.5857 14.6188 34.371 14.6188C34.1563 14.6188 33.9837 14.5582 33.853 14.4368C33.7317 14.3155 33.671 14.1475 33.671 13.9328V13.3728C33.4657 13.7835 33.167 14.1008 32.775 14.3248C32.383 14.5395 31.9303 14.6468 31.417 14.6468C30.829 14.6468 30.3017 14.4975 29.835 14.1988C29.3777 13.9002 29.0183 13.4802 28.757 12.9388C28.505 12.3975 28.379 11.7768 28.379 11.0768C28.379 10.3675 28.505 9.74683 28.757 9.21483C29.0183 8.68283 29.3777 8.27216 29.835 7.98283C30.2923 7.69349 30.8197 7.54883 31.417 7.54883C31.9303 7.54883 32.3783 7.66083 32.761 7.88483C33.153 8.09949 33.4517 8.40749 33.657 8.80883V5.25283C33.657 5.05683 33.7177 4.90283 33.839 4.79083C33.9697 4.66949 34.1423 4.60883 34.357 4.60883ZM31.753 13.5268C32.3597 13.5268 32.831 13.3168 33.167 12.8968C33.503 12.4768 33.671 11.8795 33.671 11.1048C33.671 10.3302 33.503 9.73283 33.167 9.31283C32.8403 8.89283 32.369 8.68283 31.753 8.68283C31.137 8.68283 30.6563 8.89283 30.311 9.31283C29.975 9.72349 29.807 10.3115 29.807 11.0768C29.807 11.8422 29.9797 12.4442 30.325 12.8828C30.6703 13.3122 31.1463 13.5268 31.753 13.5268ZM37.7565 14.6188C37.5512 14.6188 37.3785 14.5628 37.2385 14.4508C37.1078 14.3388 37.0425 14.1708 37.0425 13.9468V8.26283C37.0425 8.03883 37.1078 7.87083 37.2385 7.75883C37.3785 7.63749 37.5512 7.57683 37.7565 7.57683C37.9618 7.57683 38.1298 7.63749 38.2605 7.75883C38.3912 7.87083 38.4565 8.03883 38.4565 8.26283V13.9468C38.4565 14.1708 38.3912 14.3388 38.2605 14.4508C38.1298 14.5628 37.9618 14.6188 37.7565 14.6188ZM37.7565 6.20483C37.4858 6.20483 37.2712 6.13016 37.1125 5.98083C36.9538 5.83149 36.8745 5.63549 36.8745 5.39283C36.8745 5.15016 36.9538 4.95883 37.1125 4.81883C37.2712 4.66949 37.4858 4.59483 37.7565 4.59483C38.0178 4.59483 38.2278 4.66949 38.3865 4.81883C38.5545 4.95883 38.6385 5.15016 38.6385 5.39283C38.6385 5.63549 38.5592 5.83149 38.4005 5.98083C38.2418 6.13016 38.0272 6.20483 37.7565 6.20483ZM48.2731 7.54883C49.8038 7.54883 50.5691 8.46816 50.5691 10.3068V13.9468C50.5691 14.1615 50.5038 14.3295 50.3731 14.4508C50.2425 14.5628 50.0698 14.6188 49.8551 14.6188C49.6498 14.6188 49.4818 14.5628 49.3511 14.4508C49.2205 14.3295 49.1551 14.1615 49.1551 13.9468V10.3208C49.1551 9.75149 49.0525 9.34083 48.8471 9.08883C48.6418 8.82749 48.3198 8.69683 47.8811 8.69683C47.3678 8.69683 46.9618 8.87416 46.6631 9.22883C46.3645 9.57416 46.2151 10.0502 46.2151 10.6568V13.9468C46.2151 14.1615 46.1498 14.3295 46.0191 14.4508C45.8885 14.5628 45.7158 14.6188 45.5011 14.6188C45.2958 14.6188 45.1278 14.5628 44.9971 14.4508C44.8665 14.3295 44.8011 14.1615 44.8011 13.9468V10.3208C44.8011 9.75149 44.6985 9.34083 44.4931 9.08883C44.2878 8.82749 43.9658 8.69683 43.5271 8.69683C43.0138 8.69683 42.6031 8.87416 42.2951 9.22883C41.9965 9.57416 41.8471 10.0502 41.8471 10.6568V13.9468C41.8471 14.1615 41.7818 14.3295 41.6511 14.4508C41.5205 14.5628 41.3525 14.6188 41.1471 14.6188C40.9418 14.6188 40.7691 14.5628 40.6291 14.4508C40.4985 14.3295 40.4331 14.1615 40.4331 13.9468V8.24883C40.4331 8.04349 40.5031 7.88016 40.6431 7.75883C40.7831 7.63749 40.9511 7.57683 41.1471 7.57683C41.3431 7.57683 41.5018 7.63749 41.6231 7.75883C41.7538 7.87083 41.8191 8.02949 41.8191 8.23483V8.75283C42.0245 8.36083 42.3091 8.06216 42.6731 7.85683C43.0371 7.65149 43.4571 7.54883 43.9331 7.54883C44.4558 7.54883 44.8851 7.65616 45.2211 7.87083C45.5665 8.08549 45.8231 8.41683 45.9911 8.86483C46.1965 8.46349 46.4998 8.14616 46.9011 7.91283C47.3025 7.67016 47.7598 7.54883 48.2731 7.54883ZM56.1734 7.54883C56.7614 7.54883 57.2841 7.69816 57.7414 7.99683C58.2081 8.29549 58.5674 8.71549 58.8194 9.25683C59.0807 9.79816 59.2114 10.4235 59.2114 11.1328C59.2114 11.8328 59.0854 12.4488 58.8334 12.9808C58.5814 13.5128 58.2221 13.9235 57.7554 14.2128C57.2981 14.5022 56.7707 14.6468 56.1734 14.6468C55.6601 14.6468 55.2074 14.5395 54.8154 14.3248C54.4234 14.1008 54.1247 13.7835 53.9194 13.3728V16.4948C53.9194 16.6908 53.8541 16.8448 53.7234 16.9568C53.6021 17.0782 53.4387 17.1388 53.2334 17.1388C53.0187 17.1388 52.8414 17.0782 52.7014 16.9568C52.5707 16.8355 52.5054 16.6722 52.5054 16.4668V8.26283C52.5054 8.05749 52.5707 7.89416 52.7014 7.77283C52.8321 7.64216 53.0047 7.57683 53.2194 7.57683C53.4247 7.57683 53.5927 7.64216 53.7234 7.77283C53.8541 7.89416 53.9194 8.05749 53.9194 8.26283V8.83683C54.1247 8.42616 54.4234 8.10883 54.8154 7.88483C55.2074 7.66083 55.6601 7.54883 56.1734 7.54883ZM55.8374 13.5268C56.4534 13.5268 56.9294 13.3215 57.2654 12.9108C57.6014 12.4908 57.7694 11.8982 57.7694 11.1328C57.7694 10.3582 57.5967 9.75616 57.2514 9.32683C56.9154 8.89749 56.4441 8.68283 55.8374 8.68283C55.2214 8.68283 54.7454 8.89283 54.4094 9.31283C54.0827 9.73283 53.9194 10.3302 53.9194 11.1048C53.9194 11.8795 54.0827 12.4768 54.4094 12.8968C54.7454 13.3168 55.2214 13.5268 55.8374 13.5268ZM61.4909 14.6188C61.2855 14.6188 61.1129 14.5628 60.9729 14.4508C60.8422 14.3388 60.7769 14.1708 60.7769 13.9468V5.29483C60.7769 5.07083 60.8422 4.90283 60.9729 4.79083C61.1129 4.66949 61.2855 4.60883 61.4909 4.60883C61.6962 4.60883 61.8642 4.66949 61.9949 4.79083C62.1255 4.90283 62.1909 5.07083 62.1909 5.29483V13.9468C62.1909 14.1708 62.1255 14.3388 61.9949 14.4508C61.8642 14.5628 61.6962 14.6188 61.4909 14.6188ZM69.5155 12.8268C69.6462 12.8268 69.7535 12.8782 69.8375 12.9808C69.9215 13.0835 69.9635 13.2142 69.9635 13.3728C69.9635 13.6435 69.7955 13.8722 69.4595 14.0588C69.1328 14.2455 68.7735 14.3902 68.3815 14.4928C67.9988 14.5955 67.6302 14.6468 67.2755 14.6468C66.1928 14.6468 65.3388 14.3342 64.7135 13.7088C64.0882 13.0742 63.7755 12.2108 63.7755 11.1188C63.7755 10.4188 63.9108 9.79816 64.1815 9.25683C64.4615 8.71549 64.8488 8.29549 65.3435 7.99683C65.8475 7.69816 66.4168 7.54883 67.0515 7.54883C67.9662 7.54883 68.6895 7.84283 69.2215 8.43083C69.7535 9.01883 70.0195 9.81216 70.0195 10.8108C70.0195 11.1842 69.8515 11.3708 69.5155 11.3708H65.1895C65.2828 12.8175 65.9782 13.5408 67.2755 13.5408C67.6208 13.5408 67.9195 13.4942 68.1715 13.4008C68.4235 13.3075 68.6895 13.1862 68.9695 13.0368C68.9975 13.0182 69.0722 12.9808 69.1935 12.9248C69.3242 12.8595 69.4315 12.8268 69.5155 12.8268ZM67.0795 8.58483C66.5382 8.58483 66.1042 8.75749 65.7775 9.10283C65.4508 9.44816 65.2548 9.93349 65.1895 10.5588H68.8015C68.7735 9.92416 68.6102 9.43883 68.3115 9.10283C68.0222 8.75749 67.6115 8.58483 67.0795 8.58483ZM75.2597 7.54883C76.893 7.54883 77.7097 8.46816 77.7097 10.3068V13.9468C77.7097 14.1615 77.6443 14.3295 77.5137 14.4508C77.3923 14.5628 77.2197 14.6188 76.9957 14.6188C76.781 14.6188 76.6083 14.5582 76.4777 14.4368C76.3563 14.3155 76.2957 14.1522 76.2957 13.9468V10.3768C76.2957 9.79816 76.179 9.37349 75.9457 9.10283C75.7217 8.83216 75.367 8.69683 74.8817 8.69683C74.3123 8.69683 73.855 8.87416 73.5097 9.22883C73.1643 9.58349 72.9917 10.0595 72.9917 10.6568V13.9468C72.9917 14.1522 72.9263 14.3155 72.7957 14.4368C72.6743 14.5582 72.5063 14.6188 72.2917 14.6188C72.077 14.6188 71.9043 14.5582 71.7737 14.4368C71.643 14.3155 71.5777 14.1522 71.5777 13.9468V8.24883C71.5777 8.05283 71.643 7.89416 71.7737 7.77283C71.9137 7.64216 72.0863 7.57683 72.2917 7.57683C72.497 7.57683 72.6603 7.63749 72.7817 7.75883C72.903 7.88016 72.9637 8.03883 72.9637 8.23483V8.80883C73.1877 8.39816 73.5003 8.08549 73.9017 7.87083C74.303 7.65616 74.7557 7.54883 75.2597 7.54883ZM82.9901 13.5408C83.1954 13.5595 83.3401 13.6155 83.4241 13.7088C83.5174 13.7928 83.5641 13.9142 83.5641 14.0728C83.5641 14.2595 83.4894 14.4042 83.3401 14.5068C83.2001 14.6002 82.9901 14.6375 82.7101 14.6188L82.3321 14.5908C81.5761 14.5348 81.0114 14.3062 80.6381 13.9048C80.2647 13.4942 80.0781 12.8922 80.0781 12.0988V8.80883H79.2381C78.8274 8.80883 78.6221 8.62683 78.6221 8.26283C78.6221 8.09483 78.6734 7.96416 78.7761 7.87083C78.8881 7.76816 79.0421 7.71683 79.2381 7.71683H80.0781V6.27483C80.0781 6.06016 80.1387 5.89216 80.2601 5.77083C80.3907 5.64949 80.5634 5.58883 80.7781 5.58883C80.9927 5.58883 81.1654 5.64949 81.2961 5.77083C81.4267 5.89216 81.4921 6.06016 81.4921 6.27483V7.71683H82.8781C83.0741 7.71683 83.2234 7.76816 83.3261 7.87083C83.4381 7.96416 83.4941 8.09483 83.4941 8.26283C83.4941 8.44016 83.4381 8.57549 83.3261 8.66883C83.2234 8.76216 83.0741 8.80883 82.8781 8.80883H81.4921V12.1968C81.4921 12.6355 81.5807 12.9575 81.7581 13.1628C81.9447 13.3682 82.2247 13.4848 82.5981 13.5128L82.9901 13.5408ZM89.9276 12.8268C90.0583 12.8268 90.1656 12.8782 90.2496 12.9808C90.3336 13.0835 90.3756 13.2142 90.3756 13.3728C90.3756 13.6435 90.2076 13.8722 89.8716 14.0588C89.5449 14.2455 89.1856 14.3902 88.7936 14.4928C88.4109 14.5955 88.0423 14.6468 87.6876 14.6468C86.6049 14.6468 85.7509 14.3342 85.1256 13.7088C84.5003 13.0742 84.1876 12.2108 84.1876 11.1188C84.1876 10.4188 84.3229 9.79816 84.5936 9.25683C84.8736 8.71549 85.2609 8.29549 85.7556 7.99683C86.2596 7.69816 86.8289 7.54883 87.4636 7.54883C88.3783 7.54883 89.1016 7.84283 89.6336 8.43083C90.1656 9.01883 90.4316 9.81216 90.4316 10.8108C90.4316 11.1842 90.2636 11.3708 89.9276 11.3708H85.6016C85.6949 12.8175 86.3903 13.5408 87.6876 13.5408C88.0329 13.5408 88.3316 13.4942 88.5836 13.4008C88.8356 13.3075 89.1016 13.1862 89.3816 13.0368C89.4096 13.0182 89.4843 12.9808 89.6056 12.9248C89.7363 12.8595 89.8436 12.8268 89.9276 12.8268ZM87.4916 8.58483C86.9503 8.58483 86.5163 8.75749 86.1896 9.10283C85.8629 9.44816 85.6669 9.93349 85.6016 10.5588H89.2136C89.1856 9.92416 89.0223 9.43883 88.7236 9.10283C88.4343 8.75749 88.0236 8.58483 87.4916 8.58483Z" fill="#971D1D"/>
</svg>
